<svg height="512pt" viewBox="0 0 512 512" width="512pt" xmlns="http://www.w3.org/2000/svg"><path d="m24 248h464c8.835938 0 16 7.164062 16 16v224c0 8.835938-7.164062 16-16 16h-464c-8.835938 0-16-7.164062-16-16v-224c0-8.835938 7.164062-16 16-16zm0 0" fill="#91e8ed"/><path d="m424 376h48v96h-48zm0 0" fill="#ffea00"/><g fill="#00c3ff"><path d="m120 440h256c8.835938 0 16 7.164062 16 16s-7.164062 16-16 16h-256c-8.835938 0-16-7.164062-16-16s7.164062-16 16-16zm0 0"/><path d="m40 440h32v32h-32zm0 0"/><path d="m40 376h32v32h-32zm0 0"/><path d="m104 376h32v32h-32zm0 0"/><path d="m168 376h32v32h-32zm0 0"/><path d="m232 376h32v32h-32zm0 0"/><path d="m296 376h32v32h-32zm0 0"/><path d="m360 376h32v32h-32zm0 0"/><path d="m40 312h32v32h-32zm0 0"/><path d="m104 312h32v32h-32zm0 0"/><path d="m168 312h32v32h-32zm0 0"/><path d="m232 312h32v32h-32zm0 0"/><path d="m296 312h32v32h-32zm0 0"/><path d="m360 312h112v32h-112zm0 0"/><path d="m232 216h48c8.835938 0 16 7.164062 16 16v16h-80v-16c0-8.835938 7.164062-16 16-16zm0 0"/></g><path d="m32 272h48v16h-48zm0 0" fill="#fff"/><path d="m96 272h48v16h-48zm0 0" fill="#fff"/><path d="m160 272h48v16h-48zm0 0" fill="#fff"/><path d="m224 272h48v16h-48zm0 0" fill="#fff"/><path d="m288 272h48v16h-48zm0 0" fill="#fff"/><path d="m400 272h32v16h-32zm0 0" fill="#fff"/><path d="m448 272h32v16h-32zm0 0" fill="#fff"/><path d="m488 240h-184v-8c0-13.253906-10.746094-24-24-24h-16v-32c0-17.671875-14.328125-32-32-32h-104c-8.835938 0-16-7.164062-16-16s7.164062-16 16-16h256c17.671875 0 32-14.328125 32-32v-16h-16v16c0 8.835938-7.164062 16-16 16h-256c-17.671875 0-32 14.328125-32 32s14.328125 32 32 32h104c8.835938 0 16 7.164062 16 16v32h-16c-13.253906 0-24 10.746094-24 24v8h-184c-13.253906 0-24 10.746094-24 24v224c0 13.253906 10.746094 24 24 24h464c13.253906 0 24-10.746094 24-24v-224c0-13.253906-10.746094-24-24-24zm-264-8c0-4.417969 3.582031-8 8-8h48c4.417969 0 8 3.582031 8 8v8h-64zm272 256c0 4.417969-3.582031 8-8 8h-464c-4.417969 0-8-3.582031-8-8v-224c0-4.417969 3.582031-8 8-8h464c4.417969 0 8 3.582031 8 8zm0 0"/><path d="m416 480h64v-112h-64zm16-96h32v80h-32zm0 0"/><path d="m376 432h-256c-13.253906 0-24 10.746094-24 24s10.746094 24 24 24h256c13.253906 0 24-10.746094 24-24s-10.746094-24-24-24zm0 32h-256c-4.417969 0-8-3.582031-8-8s3.582031-8 8-8h256c4.417969 0 8 3.582031 8 8s-3.582031 8-8 8zm0 0"/><path d="m32 480h48v-48h-48zm16-32h16v16h-16zm0 0"/><path d="m32 416h48v-48h-48zm16-32h16v16h-16zm0 0"/><path d="m144 368h-48v48h48zm-16 32h-16v-16h16zm0 0"/><path d="m208 368h-48v48h48zm-16 32h-16v-16h16zm0 0"/><path d="m272 368h-48v48h48zm-16 32h-16v-16h16zm0 0"/><path d="m336 368h-48v48h48zm-16 32h-16v-16h16zm0 0"/><path d="m352 416h48v-48h-48zm16-32h16v16h-16zm0 0"/><path d="m32 352h48v-48h-48zm16-32h16v16h-16zm0 0"/><path d="m144 304h-48v48h48zm-16 32h-16v-16h16zm0 0"/><path d="m208 304h-48v48h48zm-16 32h-16v-16h16zm0 0"/><path d="m272 304h-48v48h48zm-16 32h-16v-16h16zm0 0"/><path d="m336 304h-48v48h48zm-16 32h-16v-16h16zm0 0"/><path d="m352 352h128v-48h-128zm16-32h96v16h-96zm0 0"/><path d="m432 32h16v16h-16zm0 0"/><path d="m400 0h16v16h-16zm0 0"/><path d="m400 32h16v16h-16zm0 0"/><path d="m368 32h16v16h-16zm0 0"/></svg>