<svg id="Layer_1" height="512" viewBox="0 0 512 512" width="512" xmlns="http://www.w3.org/2000/svg" data-name="Layer 1"><path d="m349.776 10h-187.552a46.233 46.233 0 0 0 -46.224 45.987v368.053a46.21 46.21 0 0 0 46.224 45.96h.776v26.013a5.989 5.989 0 0 0 6 5.987h48a5.989 5.989 0 0 0 6-5.987v-26.013h66v26.013a5.989 5.989 0 0 0 6 5.987h48a5.989 5.989 0 0 0 6-5.987v-26.013h.776a46.21 46.21 0 0 0 46.224-45.96v-368.053a46.233 46.233 0 0 0 -46.224-45.987zm-138.776 480h-36v-20h36zm126 0h-36v-20h36zm47-66a34 34 0 0 1 -34 34h-188a34 34 0 0 1 -34-34v-368a34 34 0 0 1 34-34h188a34 34 0 0 1 34 34z"/><path d="m359 53a6 6 0 0 0 -6-6h-194a6 6 0 0 0 -6 6v375a6 6 0 0 0 6 6h194a6 6 0 0 0 6-6zm-12 368h-182v-362h182z"/></svg>