<svg height="512pt" viewBox="0 -13 512 511" width="512pt" xmlns="http://www.w3.org/2000/svg"><path d="m452.132812 237.464844c-.003906-.003906-.007812-.007813-.011718-.011719l-204.824219-204.820313c-5.859375-5.859374-15.355469-5.859374-21.214844 0l-69.730469 69.730469-97.464843-97.46875c-5.859375-5.859375-15.355469-5.859375-21.214844 0-5.859375 5.855469-5.859375 15.355469 0 21.210938l97.464844 97.472656-118.605469 118.605469c-10.660156 10.660156-16.53125 24.875-16.53125 40.027344 0 15.152343 5.871094 29.367187 16.53125 40.027343l145.996094 145.992188c10.660156 10.65625 24.871094 16.527343 40.023437 16.527343h.003907c15.152343 0 29.367187-5.867187 40.023437-16.527343l130.71875-130.71875c-1.429687 7.070312-2.25 14.269531-2.25 21.507812 0 38.859375 31.617187 70.472657 70.472656 70.476563h.003907c38.859374-.003906 70.476562-31.617188 70.476562-70.476563-.003906-60.984375-57.421875-119.109375-59.867188-121.554687zm-230.765624 209.550781c-4.992188 4.992187-11.671876 7.742187-18.8125 7.742187-7.140626 0-13.824219-2.75-18.816407-7.738281l-145.996093-145.996093c-4.992188-4.992188-7.742188-11.671876-7.742188-18.8125 0-7.136719 2.75-13.820313 7.742188-18.8125l118.609374-118.609376 59.347657 59.355469c-3.402344 6.6875-5.214844 14.128907-5.214844 21.851563 0 12.898437 5.023437 25.023437 14.144531 34.140625 9.117188 9.121093 21.242188 14.144531 34.140625 14.144531 12.898438 0 25.023438-5.023438 34.144531-14.144531 18.824219-18.824219 18.820313-49.457031 0-68.28125-9.121093-9.121094-21.246093-14.144531-34.144531-14.144531-7.726562 0-15.167969 1.816406-21.855469 5.21875l-59.351562-59.351563 59.128906-59.125 183.621094 183.621094zm37.402343-239.304687c4.882813 0 9.476563 1.902343 12.929688 5.355468 7.128906 7.128906 7.128906 18.726563 0 25.855469-3.453125 3.453125-8.046875 5.355469-12.929688 5.355469-4.882812 0-9.476562-1.902344-12.929687-5.355469s-5.355469-8.046875-5.355469-12.929687c0-4.882813 1.902344-9.472657 5.355469-12.929688 3.453125-3.449219 8.046875-5.351562 12.929687-5.351562zm182.753907 191.785156c-22.316407 0-40.476563-18.15625-40.476563-40.476563 0-34.433593 25.511719-70.3125 40.476563-88.394531 14.972656 18.089844 40.476562 53.964844 40.476562 88.394531 0 22.320313-18.15625 40.476563-40.476562 40.476563zm0 0"/></svg>