<?xml version="1.0" encoding="UTF-8"?>
<svg xmlns="http://www.w3.org/2000/svg" xmlns:xlink="http://www.w3.org/1999/xlink" width="512" height="512" viewBox="0 0 60 60" version="1.1"><!-- Generator: Sketch 51.3 (57544) - http://www.bohemiancoding.com/sketch --><title>016 - Paint Bucket</title><desc>Created with Sketch.</desc><defs/><g id="Page-1" stroke="none" stroke-width="1" fill="none" fill-rule="evenodd"><g id="016---Paint-Bucket" fill="#000000" fill-rule="nonzero"><path d="M49,7 L43.994,7 C41.847,2.545 38.777,0 35.5,0 C32.206,0 29.121,2.572 26.973,7.071 C21.388,7.78 17,14.2 17,22 C16.9358205,25.6751347 17.9976857,29.281917 20.043,32.336 C18.9046325,33.8838381 18.066493,35.6313471 17.572,37.488 C17.341,38.375 17.172,39.281 17.001,40.158 C16.801,41.218 16.601,42.229 16.312,43.206 C8.083,43.94 0,46.742 0,51.5 C0,56.346 9.028,60 21,60 C32.972,60 42,56.346 42,51.5 C42,47.329 35.179,43.968 25.3,43.18 C25.393,42.502 25.518,41.818 25.644,41.143 L25.731,40.679 C25.9605634,39.3918394 26.2905722,38.1246323 26.718,36.889 C27.1417783,36.9594266 27.5704234,36.9965402 28,37 L49,37 C55.065,37 60,30.271 60,22 C60,13.729 55.065,7 49,7 Z M35.5,2 C37.78,2 40.01,3.8 41.751,7 L29.251,7 C30.99,3.8 33.22,2 35.5,2 Z M28,9 C32.963,9 37,14.832 37,22 C37,29.168 32.963,35 28,35 C27.84,35 27.68,34.994 27.521,34.981 C27.542,34.939 27.563,34.897 27.585,34.855 C28.1973331,33.7913059 29.1130386,32.9344423 30.215,32.394 C30.9390501,31.9787675 31.5826068,31.436825 32.115,30.794 C32.1478077,30.7627019 32.1785396,30.7292977 32.207,30.694 C32.3843333,30.4806667 32.554,30.257 32.716,30.023 C33.9138952,28.2206809 34.6536468,26.1531523 34.871,24 L34.871,23.984 C34.9578294,23.3262473 35.0009241,22.6634584 35,22 C35,15.42 31.381,11 28,11 C24.619,11 21,15.42 21,22 C20.9578863,24.5391487 21.5808478,27.0451294 22.807,29.269 C22.6943333,29.371 22.583,29.4733333 22.473,29.576 C22.381,29.662 22.293,29.748 22.203,29.835 C21.96,30.071 21.726,30.309 21.503,30.552 C21.453,30.605 21.397,30.652 21.348,30.71 C19.7736617,28.0802019 18.9607772,25.0647742 19,22 C19,14.832 23.037,9 28,9 Z M24.394,28 C23.4447371,26.1444293 22.9660325,24.0840079 23,22 C23,16.424 25.912,13 28,13 C30.088,13 33,16.424 33,22 C33.0016179,22.5872009 32.9638666,23.1738497 32.887,23.756 C32.863,23.965 32.812,24.161 32.779,24.365 C32.464,24.471 32.157,24.575 31.818,24.685 C29.1914977,25.4125686 26.6889887,26.5300009 24.394,28 Z M40,51.5 C40,54.574 32.2,58 21,58 C9.8,58 2,54.574 2,51.5 C2,49.087 7.007,46.22 15.481,45.292 C15.419,45.407 15.365,45.53 15.299,45.641 C14.5036593,47.2003787 12.8519533,48.1319992 11.106,48.006 C10.8417606,47.9746512 10.5760469,48.0512127 10.3690001,48.218356 C10.1619533,48.3854992 10.0310794,48.629092 10.006,48.894 C9.94766644,49.4429096 10.345133,49.9352668 10.894,49.994 C11.1161639,50.0183476 11.3395062,50.030366 11.563,50.03 C13.8608328,49.9862994 15.9525476,48.6947862 17.021,46.66 C17.4290665,45.9657792 17.7625872,45.2303578 18.016,44.466 L18.016,44.459 C18.4238607,43.1756627 18.7403191,41.8650506 18.963,40.537 C19.131,39.653 19.29,38.819 19.505,37.996 C19.9904075,36.1583067 20.8579554,34.4436559 22.051,32.964 C22.8506093,31.9637884 23.7525022,31.0498299 24.742,30.237 C26.9870118,28.5973134 29.5153538,27.3860281 32.2,26.664 C32.178,26.723 32.165,26.79 32.142,26.848 C32.119,26.906 32.086,26.962 32.061,27.023 C31.9041251,27.4209959 31.7224349,27.8087575 31.517,28.184 C31.423,28.351 31.307,28.491 31.204,28.648 C31.052,28.882 30.904,29.127 30.74,29.337 L30.728,29.349 L30.717,29.361 C30.6966547,29.3803465 30.6772968,29.4007057 30.659,29.422 C30.2671231,29.9137596 29.78732,30.3284587 29.244,30.645 C27.7956126,31.3716212 26.5994115,32.5172982 25.811,33.933 C25.58,34.375 25.36,34.856 25.154,35.363 C24.5253337,36.9620732 24.0609438,38.6209434 23.768,40.314 L23.682,40.774 C23.1105566,42.9392949 23.0356929,45.2057147 23.463,47.404 C23.8779051,49.0491996 25.0866382,50.3787309 26.685,50.948 C27.2096705,51.122522 27.776478,50.8386705 27.951,50.314 C28.125522,49.7893295 27.8416705,49.222522 27.317,49.048 C26.3571241,48.6830663 25.6376056,47.8701039 25.392,46.873 C25.2476145,46.317766 25.173039,45.7466922 25.17,45.173 C34.351,45.918 40,48.974 40,51.5 Z M49,35 L33.464,35 C36.767,32.409 39,27.558 39,22 C39,16.442 36.767,11.591 33.464,9 L42.693,9 C43.9862871,12.2596108 44.7352615,15.709555 44.91,19.212 C43.5404059,19.7379848 42.7492846,21.174517 43.0369231,22.6131664 C43.3245616,24.0518158 44.607215,25.0737248 46.0737625,25.0326615 C47.5403101,24.9915981 48.7637718,23.8995179 48.9704584,22.4470274 C49.1771449,20.9945369 48.3068803,19.6045235 46.91,19.156 C46.7352113,15.6869571 46.0418541,12.2636537 44.853,9 L49,9 C53.963,9 58,14.832 58,22 C58,29.168 53.963,35 49,35 Z M46,21 C46.5522847,21 47,21.4477153 47,22 C47,22.5522847 46.5522847,23 46,23 C45.4477153,23 45,22.5522847 45,22 C45,21.4477153 45.4477153,21 46,21 Z" id="Shape"/><path d="M21.89,54.006 C13.384,54.951 8.56,52.169 8.512,52.141 C8.03880323,51.8657099 7.43221011,52.0220813 7.15107371,52.4918282 C6.8699373,52.9615751 7.01877519,53.5700605 7.485,53.857 C7.67,53.968 11.49,56.205 18.373,56.205 C19.6216091,56.2037902 20.8691906,56.1333487 22.11,55.994 C22.465122,55.9547008 22.7723024,55.7289315 22.9158293,55.4017372 C23.0593561,55.0745429 23.0174244,54.6956323 22.8058293,54.4077372 C22.5942341,54.1198421 22.245122,53.9667008 21.89,54.006 Z" id="Shape"/></g></g></svg>
