<?xml version="1.0" encoding="iso-8859-1"?>
<!-- Generator: Adobe Illustrator 19.0.0, SVG Export Plug-In . SVG Version: 6.00 Build 0)  -->
<svg version="1.1" id="Layer_1" xmlns="http://www.w3.org/2000/svg" xmlns:xlink="http://www.w3.org/1999/xlink" x="0px" y="0px"
	 viewBox="0 0 511.998 511.998" style="enable-background:new 0 0 511.998 511.998;" xml:space="preserve">
<g>
	<g>
		<path d="M271.441,298.53h-77.941V69.214c0-22.718-18.482-41.201-41.201-41.201c-22.719,0-41.201,18.483-41.201,41.201V298.53
			H33.157C14.873,298.53,0,313.403,0,331.686c0,8.857,3.449,17.184,9.711,23.446l119.142,119.142
			c6.262,6.261,14.588,9.711,23.445,9.711s17.184-3.449,23.447-9.711l119.142-119.143c6.262-6.263,9.711-14.589,9.711-23.445
			C304.597,313.403,289.724,298.53,271.441,298.53z M280.461,340.709L161.32,459.849c-2.41,2.41-5.614,3.737-9.022,3.737
			c-3.408,0-6.612-1.327-9.021-3.737L24.135,340.709c-2.41-2.41-3.737-5.614-3.737-9.022c0-7.034,5.723-12.758,12.758-12.758h88.141
			c5.632,0,10.199-4.567,10.199-10.199V69.214c0-11.471,9.332-20.802,20.802-20.802c11.471,0,20.802,9.331,20.802,20.802v239.515
			c0,5.632,4.567,10.199,10.199,10.199h88.139c7.035,0,12.758,5.724,12.758,12.758C284.198,335.094,282.87,338.299,280.461,340.709z
			"/>
	</g>
</g>
<g>
	<g>
		<path d="M237.683,354.889c-3.985-3.982-10.441-3.982-14.425,0l-2.008,2.008c-3.983,3.984-3.983,10.442,0,14.425
			c1.992,1.991,4.601,2.987,7.212,2.987s5.22-0.996,7.213-2.987l2.008-2.008C241.666,365.33,241.666,358.872,237.683,354.889z"/>
	</g>
</g>
<g>
	<g>
		<path d="M214.087,378.485c-3.985-3.982-10.441-3.982-14.425,0l-52.867,52.867c-3.983,3.984-3.983,10.442,0,14.425
			c1.992,1.991,4.601,2.987,7.212,2.987c2.611,0,5.22-0.996,7.213-2.987l52.867-52.867
			C218.07,388.926,218.07,382.468,214.087,378.485z"/>
	</g>
</g>
<g>
	<g>
		<path d="M502.287,156.865L383.146,37.724c-6.262-6.261-14.589-9.711-23.445-9.711c-8.856,0-17.183,3.448-23.446,9.711
			L217.115,156.867c-6.262,6.263-9.711,14.589-9.711,23.445c0,18.283,14.873,33.157,33.157,33.157h77.941v229.316
			c0,22.718,18.483,41.201,41.201,41.201s41.2-18.483,41.198-41.202V213.467h77.941c18.283,0,33.157-14.874,33.157-33.157
			C511.998,171.455,508.55,163.128,502.287,156.865z M478.844,193.07h-88.141c-5.632,0-10.199,4.567-10.199,10.199v239.515
			c0,11.471-9.332,20.802-20.802,20.802c-11.471,0-20.802-9.331-20.802-20.802V203.269c0-5.632-4.567-10.199-10.199-10.199H240.56
			c-7.035,0-12.758-5.724-12.758-12.758c0-3.408,1.328-6.613,3.737-9.022L350.68,52.149c2.41-2.41,5.614-3.737,9.022-3.737
			c3.408,0,6.611,1.327,9.02,3.737L487.866,171.29c2.41,2.41,3.737,5.614,3.737,9.022
			C491.603,187.347,485.879,193.07,478.844,193.07z"/>
	</g>
</g>
<g>
</g>
<g>
</g>
<g>
</g>
<g>
</g>
<g>
</g>
<g>
</g>
<g>
</g>
<g>
</g>
<g>
</g>
<g>
</g>
<g>
</g>
<g>
</g>
<g>
</g>
<g>
</g>
<g>
</g>
</svg>
